<svg width="26" height="32" viewBox="0 0 26 32" fill="none" xmlns="http://www.w3.org/2000/svg">
<path d="M21.7055 16.9819C21.6691 12.9477 25.0096 10.985 25.1623 10.8936C23.2705 8.13609 20.3382 7.75933 19.3078 7.72929C16.845 7.47018 14.4562 9.20255 13.2016 9.20255C11.922 9.20255 9.99013 7.75432 7.90799 7.79688C5.22863 7.83819 2.72205 9.38905 1.34731 11.7973C-1.48981 16.7078 0.626139 23.9239 3.34431 27.893C4.70403 29.8382 6.29286 32.0074 8.3725 31.931C10.4071 31.8484 11.167 30.6355 13.6223 30.6355C16.055 30.6355 16.7687 31.931 18.8896 31.8822C21.0732 31.8484 22.4479 29.9296 23.76 27.9681C25.3314 25.7413 25.9624 23.5459 25.9874 23.4332C25.9373 23.4157 21.748 21.816 21.7055 16.9819ZM17.6989 5.11823C18.7932 3.75011 19.5419 1.88883 19.3341 0C17.7503 0.0700956 15.7695 1.09524 14.6289 2.43332C13.6198 3.61243 12.7183 5.54506 12.9512 7.36254C14.7303 7.49522 16.5571 6.46506 17.6989 5.11823Z" fill="white"/>
</svg>
